# xmcd
#
# Track frame offsets:
#	150
#	6594
#	14890
#	24994
#	40919
#	50374
#	63649
#	76599
#	91605
#	111963
#	124115
#	134709
#	148381
#	162494
#	172439
#	187646
#	195923
#	205295
#	215454
#	224813
#	235276
#	244724
#	255393
#	275729
#	296652
#	306989
#	314684
#	327094
#
# Disc length: 4487 seconds
#
# Revision: 3
# Processed by: cddbd v1.5.2PL0 Copyright (c) Steve Scherf et al.
# Submitted via: EZCDAudioConverter 1.3.4.1
#
DISCID=b411851c
DTITLE=Tiny Tim - God Bless Tiny Tim 1/3
DYEAR=2006
DGENRE=
TTITLE0=Welcome To My Dream
TTITLE1=Tip-Toe Thru' The Tulips With Me
TTITLE2=Livin' In The Sunlight, Lovin' In The Moonlight
TTITLE3=On The Old Front Porch
TTITLE4=The Viper
TTITLE5=Stay Down Here Where You Belong
TTITLE6=Then I'd Be Satisfied With Life
TTITLE7=Strawberry Tea
TTITLE8=The Other Side
TTITLE9=Ever Since You Told Me That You Love Me (I'm A Nut)
TTITLE10=Daddy, Daddy, What Is Heaven Like?
TTITLE11=The Coming Home Party
TTITLE12=Fill Your Heart
TTITLE13=I Got You, Babe
TTITLE14=This Is All I Ask
TTITLE15=Tip-Toe Thru' The Tulips With Me [Single]
TTITLE16=Bring Back Those Rockabye Baby Days
TTITLE17=Hello, Hello
TTITLE18=On The Good Ship Lollipop [Single]
TTITLE19=America I Love You
TTITLE20=Mickey The Monkey [Single]
TTITLE21=I'm A Lonesome Little Raindrop [Single]
TTITLE22=There'll Always Be An England - Bless 'Em All - It's A Long Way To Ti
TTITLE22=pperary [Studio]
TTITLE23=There'll Always Be An England - Bless 'Em All - It's A Long Way To Ti
TTITLE23=pperary [Live]
TTITLE24=Don't Bite The Hand That's Feeding You
TTITLE25=What Kind Of American Are You?
TTITLE26=Why [Promo Stereo Version]
TTITLE27=The Spaceship Song
EXTD=
EXTT0=
EXTT1=
EXTT2=
EXTT3=
EXTT4=
EXTT5=
EXTT6=
EXTT7=
EXTT8=
EXTT9=
EXTT10=
EXTT11=
EXTT12=
EXTT13=
EXTT14=
EXTT15=
EXTT16=
EXTT17=
EXTT18=
EXTT19=
EXTT20=
EXTT21=
EXTT22=
EXTT23=
EXTT24=
EXTT25=
EXTT26=
EXTT27=
PLAYORDER=
